<?xml version="1.0" standalone="no"?>
<!DOCTYPE svg PUBLIC "-//W3C//DTD SVG 20010904//EN"
 "http://www.w3.org/TR/2001/REC-SVG-20010904/DTD/svg10.dtd">
<svg version="1.0" xmlns="http://www.w3.org/2000/svg"
 width="205.000000pt" height="205.000000pt" viewBox="0 0 205.000000 205.000000"
 preserveAspectRatio="xMidYMid meet">
<metadata>
Created by potrace 1.14, written by Peter Selinger 2001-2017
</metadata>
<g transform="translate(0.000000,205.000000) scale(0.100000,-0.100000)"
fill="#000000" stroke="none">
<path d="M1827 1894 c-3 -3 -31 -7 -63 -9 -224 -13 -452 -72 -648 -167 -203
-99 -335 -226 -386 -371 -23 -64 -28 -157 -12 -197 37 -93 198 -155 455 -175
49 -4 98 -8 110 -10 12 -2 60 -6 107 -10 216 -16 410 -61 410 -96 0 -14 -79
-68 -160 -108 -151 -76 -669 -276 -1035 -401 -206 -70 -222 -76 -305 -105 -36
-13 -97 -33 -135 -45 -72 -21 -145 -69 -145 -95 0 -11 6 -12 24 -5 13 5 66 11
117 15 99 7 128 10 197 26 24 5 67 11 95 14 52 4 216 44 272 65 17 7 37 13 45
15 109 23 742 255 850 312 110 57 275 176 285 205 10 28 16 62 16 88 0 39 -29
104 -53 119 -126 79 -213 100 -518 126 -36 3 -81 7 -100 10 -19 2 -64 7 -100
11 -36 4 -67 8 -70 9 -3 1 -28 5 -56 9 -71 10 -174 65 -202 106 -17 26 -21 42
-17 69 19 119 223 288 445 370 52 19 330 87 395 96 17 3 87 20 158 39 156 41
209 71 149 84 -44 9 -60 9 -73 2 -7 -5 -20 -5 -30 0 -9 5 -19 7 -22 4z"/>
</g>
</svg>
